# Blender v2.91.0 OBJ File: 'full_room.blend'
# www.blender.org
mtllib cute_bookshelf.mtl
o Box001_Меш.005
v 2.274823 -0.011543 3.492301
v 2.275622 -0.011543 4.000300
v 4.165785 -0.011543 3.489326
v 4.166584 -0.011543 3.997325
v 2.274823 0.496457 3.492301
v 2.275622 0.496457 4.000300
v 4.165785 0.496457 3.489326
v 4.166584 0.496457 3.997325
vt 1.000000 0.000000
vt 1.000000 1.000000
vt 0.000000 1.000000
vt 0.000000 0.000000
vt 0.000000 0.000000
vt 1.000000 0.000000
vt 1.000000 1.000000
vt 0.000000 1.000000
vt 0.000000 0.000000
vt 1.000000 0.000000
vt 1.000000 1.000000
vt 0.000000 1.000000
vt 1.000000 0.000000
vt 0.000000 1.000000
vt 0.000000 0.000000
vt 1.000000 0.000000
vt 1.000000 1.000000
vt 0.000000 1.000000
vt 0.000000 0.000000
vt 1.000000 1.000000
vn -0.0000 -1.0000 0.0000
vn 0.0000 1.0000 0.0000
vn -1.0000 0.0000 0.0016
vn 0.0016 0.0000 1.0000
vn 1.0000 0.0000 -0.0016
vn -0.0016 0.0000 -1.0000
usemtl 02_-_Default
s 1
f 1/1/1 3/2/1 4/3/1
f 4/3/1 2/4/1 1/1/1
f 5/5/2 6/6/2 8/7/2
f 8/7/2 7/8/2 5/5/2
f 1/9/3 2/10/3 6/11/3
f 6/11/3 5/12/3 1/9/3
f 2/4/4 4/13/4 8/7/4
f 8/7/4 6/14/4 2/4/4
f 4/15/5 3/16/5 7/17/5
f 7/17/5 8/18/5 4/15/5
f 3/19/6 1/1/6 5/20/6
f 5/20/6 7/8/6 3/19/6
o Box002_Меш.006
v 2.274823 -0.034360 3.492301
v 2.275622 -0.034360 4.000300
v 4.165785 -0.034360 3.489326
v 4.166584 -0.034360 3.997325
v 2.274823 -0.008960 3.492301
v 2.275622 -0.008960 4.000300
v 4.165785 -0.008960 3.489326
v 4.166584 -0.008960 3.997325
vt 1.000000 0.000000
vt 1.000000 1.000000
vt 0.000000 1.000000
vt 0.000000 0.000000
vt 0.000000 0.000000
vt 1.000000 0.000000
vt 1.000000 1.000000
vt 0.000000 1.000000
vt 0.000000 0.000000
vt 1.000000 0.000000
vt 1.000000 1.000000
vt 0.000000 1.000000
vt 1.000000 0.000000
vt 0.000000 1.000000
vt 0.000000 0.000000
vt 1.000000 0.000000
vt 1.000000 1.000000
vt 0.000000 1.000000
vt 0.000000 0.000000
vt 1.000000 1.000000
vn -0.0000 -1.0000 -0.0000
vn 0.0000 1.0000 0.0000
vn -1.0000 0.0000 0.0016
vn 0.0016 0.0000 1.0000
vn 1.0000 0.0000 -0.0016
vn -0.0016 0.0000 -1.0000
usemtl None
s 1
f 9/21/7 11/22/7 12/23/7
f 12/23/7 10/24/7 9/21/7
f 13/25/8 14/26/8 16/27/8
f 16/27/8 15/28/8 13/25/8
f 9/29/9 10/30/9 14/31/9
f 14/31/9 13/32/9 9/29/9
f 10/24/10 12/33/10 16/27/10
f 16/27/10 14/34/10 10/24/10
f 12/35/11 11/36/11 15/37/11
f 15/37/11 16/38/11 12/35/11
f 11/39/12 9/21/12 13/40/12
f 13/40/12 15/28/12 11/39/12
o Box003_Меш.007
v 2.316874 0.008859 3.477793
v 2.316906 0.008859 3.498104
v 4.123689 0.008859 3.474950
v 4.123721 0.008859 3.495262
v 2.316874 0.476219 3.477793
v 2.316906 0.476219 3.498104
v 4.123689 0.476219 3.474950
v 4.123721 0.476219 3.495262
vt 1.000000 0.000000
vt 1.000000 1.000000
vt 0.000000 1.000000
vt 0.000000 0.000000
vt 0.000000 0.000000
vt 1.000000 0.000000
vt 1.000000 1.000000
vt 0.000000 1.000000
vt 0.000000 0.000000
vt 1.000000 0.000000
vt 1.000000 1.000000
vt 0.000000 1.000000
vt 1.000000 0.000000
vt 0.000000 1.000000
vt 0.000000 0.000000
vt 1.000000 0.000000
vt 1.000000 1.000000
vt 0.000000 1.000000
vt 0.000000 0.000000
vt 1.000000 1.000000
vn -0.0000 -1.0000 -0.0000
vn 0.0000 1.0000 0.0000
vn -1.0000 0.0000 0.0016
vn 0.0016 0.0000 1.0000
vn 1.0000 0.0000 -0.0016
vn -0.0016 0.0000 -1.0000
usemtl 01_-_Default
s 1
f 17/41/13 19/42/13 20/43/13
f 20/43/13 18/44/13 17/41/13
f 21/45/14 22/46/14 24/47/14
f 24/47/14 23/48/14 21/45/14
f 17/49/15 18/50/15 22/51/15
f 22/51/15 21/52/15 17/49/15
f 18/44/16 20/53/16 24/47/16
f 24/47/16 22/54/16 18/44/16
f 20/55/17 19/56/17 23/57/17
f 23/57/17 24/58/17 20/55/17
f 19/59/18 17/41/18 21/60/18
f 21/60/18 23/48/18 19/59/18
o Box004_Меш.009
v 4.096360 0.496457 3.485292
v 4.097147 0.496457 3.985822
v 4.164757 0.496457 3.485185
v 4.165544 0.496457 3.985715
v 4.096360 1.004457 3.485292
v 4.097147 1.004457 3.985822
v 4.164757 1.004457 3.485185
v 4.165544 1.004457 3.985715
vt 1.000000 0.000000
vt 1.000000 1.000000
vt 0.000000 1.000000
vt 0.000000 0.000000
vt 0.000000 0.000000
vt 1.000000 0.000000
vt 1.000000 1.000000
vt 0.000000 1.000000
vt 0.000000 0.000000
vt 1.000000 0.000000
vt 1.000000 1.000000
vt 0.000000 1.000000
vt 1.000000 0.000000
vt 0.000000 1.000000
vt 0.000000 0.000000
vt 1.000000 0.000000
vt 1.000000 1.000000
vt 0.000000 1.000000
vt 0.000000 0.000000
vt 1.000000 1.000000
vn 0.0000 -1.0000 0.0000
vn 0.0000 1.0000 0.0000
vn -1.0000 0.0000 0.0016
vn 0.0016 0.0000 1.0000
vn 1.0000 0.0000 -0.0016
vn -0.0016 0.0000 -1.0000
usemtl 02_-_Default
s 1
f 25/61/19 27/62/19 28/63/19
f 28/63/19 26/64/19 25/61/19
f 29/65/20 30/66/20 32/67/20
f 32/67/20 31/68/20 29/65/20
f 25/69/21 26/70/21 30/71/21
f 30/71/21 29/72/21 25/69/21
f 26/64/22 28/73/22 32/67/22
f 32/67/22 30/74/22 26/64/22
f 28/75/23 27/76/23 31/77/23
f 31/77/23 32/78/23 28/75/23
f 27/79/24 25/61/24 29/80/24
f 29/80/24 31/68/24 27/79/24
o Box005_Меш.010
v 2.316874 1.023081 3.477793
v 2.316905 1.023081 3.498104
v 4.123689 1.023081 3.474950
v 4.123721 1.023081 3.495262
v 2.316874 1.490441 3.477793
v 2.316905 1.490441 3.498104
v 4.123689 1.490441 3.474950
v 4.123721 1.490441 3.495262
vt 1.000000 0.000000
vt 1.000000 1.000000
vt 0.000000 1.000000
vt 0.000000 0.000000
vt 0.000000 0.000000
vt 1.000000 0.000000
vt 1.000000 1.000000
vt 0.000000 1.000000
vt 0.000000 0.000000
vt 1.000000 0.000000
vt 1.000000 1.000000
vt 0.000000 1.000000
vt 1.000000 0.000000
vt 0.000000 1.000000
vt 0.000000 0.000000
vt 1.000000 0.000000
vt 1.000000 1.000000
vt 0.000000 1.000000
vt 0.000000 0.000000
vt 1.000000 1.000000
vn 0.0000 -1.0000 -0.0000
vn 0.0000 1.0000 -0.0000
vn -1.0000 0.0000 0.0016
vn 0.0016 0.0000 1.0000
vn 1.0000 0.0000 -0.0016
vn -0.0016 0.0000 -1.0000
usemtl 01_-_Default
s 1
f 33/81/25 35/82/25 36/83/25
f 36/83/25 34/84/25 33/81/25
f 37/85/26 38/86/26 40/87/26
f 40/87/26 39/88/26 37/85/26
f 33/89/27 34/90/27 38/91/27
f 38/91/27 37/92/27 33/89/27
f 34/84/28 36/93/28 40/87/28
f 40/87/28 38/94/28 34/84/28
f 36/95/29 35/96/29 39/97/29
f 39/97/29 40/98/29 36/95/29
f 35/99/30 33/81/30 37/100/30
f 37/100/30 39/88/30 35/99/30
o Box006_Меш.012
v 2.274822 1.002679 3.492301
v 2.275622 1.002679 4.000300
v 4.165785 1.002679 3.489326
v 4.166584 1.002679 3.997325
v 2.274822 1.510679 3.492301
v 2.275622 1.510679 4.000300
v 4.165785 1.510679 3.489326
v 4.166584 1.510679 3.997325
vt 1.000000 0.000000
vt 1.000000 1.000000
vt 0.000000 1.000000
vt 0.000000 0.000000
vt 0.000000 0.000000
vt 1.000000 0.000000
vt 1.000000 1.000000
vt 0.000000 1.000000
vt 0.000000 0.000000
vt 1.000000 0.000000
vt 1.000000 1.000000
vt 0.000000 1.000000
vt 1.000000 0.000000
vt 0.000000 1.000000
vt 0.000000 0.000000
vt 1.000000 0.000000
vt 1.000000 1.000000
vt 0.000000 1.000000
vt 0.000000 0.000000
vt 1.000000 1.000000
vn 0.0000 -1.0000 -0.0000
vn 0.0000 1.0000 0.0000
vn -1.0000 0.0000 0.0016
vn 0.0016 0.0000 1.0000
vn 1.0000 0.0000 -0.0016
vn -0.0016 0.0000 -1.0000
usemtl 02_-_Default
s 1
f 41/101/31 43/102/31 44/103/31
f 44/103/31 42/104/31 41/101/31
f 45/105/32 46/106/32 48/107/32
f 48/107/32 47/108/32 45/105/32
f 41/109/33 42/110/33 46/111/33
f 46/111/33 45/112/33 41/109/33
f 42/104/34 44/113/34 48/107/34
f 48/107/34 46/114/34 42/104/34
f 44/115/35 43/116/35 47/117/35
f 47/117/35 48/118/35 44/115/35
f 43/119/36 41/101/36 45/120/36
f 45/120/36 47/108/36 43/119/36
o Box007_Меш.014
v 0.788579 0.496614 3.494639
v 0.789378 0.496614 4.002638
v 2.679542 0.496613 3.491664
v 2.680341 0.496613 3.999663
v 0.788579 1.004614 3.494639
v 0.789378 1.004614 4.002638
v 2.679542 1.004613 3.491664
v 2.680341 1.004613 3.999663
vt 1.000000 0.000000
vt 1.000000 1.000000
vt 0.000000 1.000000
vt 0.000000 0.000000
vt 0.000000 0.000000
vt 1.000000 0.000000
vt 1.000000 1.000000
vt 0.000000 1.000000
vt 0.000000 0.000000
vt 1.000000 0.000000
vt 1.000000 1.000000
vt 0.000000 1.000000
vt 1.000000 0.000000
vt 0.000000 1.000000
vt 0.000000 0.000000
vt 1.000000 0.000000
vt 1.000000 1.000000
vt 0.000000 1.000000
vt 0.000000 0.000000
vt 1.000000 1.000000
vn -0.0000 -1.0000 -0.0000
vn 0.0000 1.0000 0.0000
vn -1.0000 0.0000 0.0016
vn 0.0016 0.0000 1.0000
vn 1.0000 0.0000 -0.0016
vn -0.0016 0.0000 -1.0000
usemtl 02_-_Default
s 1
f 49/121/37 51/122/37 52/123/37
f 52/123/37 50/124/37 49/121/37
f 53/125/38 54/126/38 56/127/38
f 56/127/38 55/128/38 53/125/38
f 49/129/39 50/130/39 54/131/39
f 54/131/39 53/132/39 49/129/39
f 50/124/40 52/133/40 56/127/40
f 56/127/40 54/134/40 50/124/40
f 52/135/41 51/136/41 55/137/41
f 55/137/41 56/138/41 52/135/41
f 51/139/42 49/121/42 53/140/42
f 53/140/42 55/128/42 51/139/42
o Box008_Меш.015
v 0.761746 0.517016 3.480239
v 0.761778 0.517016 3.500551
v 2.568561 0.517016 3.477397
v 2.568593 0.517016 3.497709
v 0.761746 0.984376 3.480239
v 0.761778 0.984376 3.500551
v 2.568561 0.984376 3.477397
v 2.568593 0.984376 3.497709
vt 1.000000 0.000000
vt 1.000000 1.000000
vt 0.000000 1.000000
vt 0.000000 0.000000
vt 0.000000 0.000000
vt 1.000000 0.000000
vt 1.000000 1.000000
vt 0.000000 1.000000
vt 0.000000 0.000000
vt 1.000000 0.000000
vt 1.000000 1.000000
vt 0.000000 1.000000
vt 1.000000 0.000000
vt 0.000000 1.000000
vt 0.000000 0.000000
vt 1.000000 0.000000
vt 1.000000 1.000000
vt 0.000000 1.000000
vt 0.000000 0.000000
vt 1.000000 1.000000
vn -0.0000 -1.0000 0.0000
vn 0.0000 1.0000 0.0000
vn -1.0000 0.0000 0.0016
vn 0.0016 0.0000 1.0000
vn 1.0000 0.0000 -0.0016
vn -0.0016 0.0000 -1.0000
usemtl 03_-_Default
s 1
f 57/141/43 59/142/43 60/143/43
f 60/143/43 58/144/43 57/141/43
f 61/145/44 62/146/44 64/147/44
f 64/147/44 63/148/44 61/145/44
f 57/149/45 58/150/45 62/151/45
f 62/151/45 61/152/45 57/149/45
f 58/144/46 60/153/46 64/147/46
f 64/147/46 62/154/46 58/144/46
f 60/155/47 59/156/47 63/157/47
f 63/157/47 64/158/47 60/155/47
f 59/159/48 57/141/48 61/160/48
f 61/160/48 63/148/48 59/159/48
o Box009_Меш.016
v 0.788579 1.516823 3.494639
v 0.789378 1.516823 4.002638
v 2.679542 1.516823 3.491664
v 2.680341 1.516823 3.999663
v 0.788579 2.024823 3.494639
v 0.789378 2.024823 4.002638
v 2.679542 2.024823 3.491664
v 2.680341 2.024823 3.999663
vt 1.000000 0.000000
vt 1.000000 1.000000
vt 0.000000 1.000000
vt 0.000000 0.000000
vt 0.000000 0.000000
vt 1.000000 0.000000
vt 1.000000 1.000000
vt 0.000000 1.000000
vt 0.000000 0.000000
vt 1.000000 0.000000
vt 1.000000 1.000000
vt 0.000000 1.000000
vt 1.000000 0.000000
vt 0.000000 1.000000
vt 0.000000 0.000000
vt 1.000000 0.000000
vt 1.000000 1.000000
vt 0.000000 1.000000
vt 0.000000 0.000000
vt 1.000000 1.000000
vn 0.0000 -1.0000 0.0000
vn 0.0000 1.0000 0.0000
vn -1.0000 0.0000 0.0016
vn 0.0016 0.0000 1.0000
vn 1.0000 0.0000 -0.0016
vn -0.0016 0.0000 -1.0000
usemtl 02_-_Default
s 1
f 65/161/49 67/162/49 68/163/49
f 68/163/49 66/164/49 65/161/49
f 69/165/50 70/166/50 72/167/50
f 72/167/50 71/168/50 69/165/50
f 65/169/51 66/170/51 70/171/51
f 70/171/51 69/172/51 65/169/51
f 66/164/52 68/173/52 72/167/52
f 72/167/52 70/174/52 66/164/52
f 68/175/53 67/176/53 71/177/53
f 71/177/53 72/178/53 68/175/53
f 67/179/54 65/161/54 69/180/54
f 69/180/54 71/168/54 67/179/54
o Box010_Меш.017
v 0.761746 1.537226 3.480239
v 0.761778 1.537226 3.500551
v 2.568561 1.537226 3.477397
v 2.568593 1.537226 3.497709
v 0.761746 2.004586 3.480239
v 0.761778 2.004586 3.500551
v 2.568561 2.004586 3.477397
v 2.568593 2.004586 3.497709
vt 1.000000 0.000000
vt 1.000000 1.000000
vt 0.000000 1.000000
vt 0.000000 0.000000
vt 0.000000 0.000000
vt 1.000000 0.000000
vt 1.000000 1.000000
vt 0.000000 1.000000
vt 0.000000 0.000000
vt 1.000000 0.000000
vt 1.000000 1.000000
vt 0.000000 1.000000
vt 1.000000 0.000000
vt 0.000000 1.000000
vt 0.000000 0.000000
vt 1.000000 0.000000
vt 1.000000 1.000000
vt 0.000000 1.000000
vt 0.000000 0.000000
vt 1.000000 1.000000
vn 0.0000 -1.0000 -0.0000
vn 0.0000 1.0000 0.0000
vn -1.0000 0.0000 0.0016
vn 0.0016 0.0000 1.0000
vn 1.0000 0.0000 -0.0016
vn -0.0016 0.0000 -1.0000
usemtl 03_-_Default
s 1
f 73/181/55 75/182/55 76/183/55
f 76/183/55 74/184/55 73/181/55
f 77/185/56 78/186/56 80/187/56
f 80/187/56 79/188/56 77/185/56
f 73/189/57 74/190/57 78/191/57
f 78/191/57 77/192/57 73/189/57
f 74/184/58 76/193/58 80/187/58
f 80/187/58 78/194/58 74/184/58
f 76/195/59 75/196/59 79/197/59
f 79/197/59 80/198/59 76/195/59
f 75/199/60 73/181/60 77/200/60
f 77/200/60 79/188/60 75/199/60
o Box011_Меш.019
v 4.096364 1.511023 3.488007
v 4.097151 1.511023 3.988537
v 4.164761 1.511023 3.487899
v 4.165548 1.511023 3.988429
v 4.096364 2.066013 3.488007
v 4.097151 2.066013 3.988537
v 4.164761 2.066013 3.487899
v 4.165548 2.066013 3.988429
vt 1.000000 0.000000
vt 1.000000 1.000000
vt 0.000000 1.000000
vt 0.000000 0.000000
vt 0.000000 0.000000
vt 1.000000 0.000000
vt 1.000000 1.000000
vt 0.000000 1.000000
vt 0.000000 0.000000
vt 1.000000 0.000000
vt 1.000000 1.000000
vt 0.000000 1.000000
vt 1.000000 0.000000
vt 0.000000 1.000000
vt 0.000000 0.000000
vt 1.000000 0.000000
vt 1.000000 1.000000
vt 0.000000 1.000000
vt 0.000000 0.000000
vt 1.000000 1.000000
vn 0.0000 -1.0000 0.0000
vn 0.0000 1.0000 0.0000
vn -1.0000 0.0000 0.0016
vn 0.0016 0.0000 1.0000
vn 1.0000 0.0000 -0.0016
vn -0.0016 0.0000 -1.0000
usemtl 02_-_Default
s 1
f 81/201/61 83/202/61 84/203/61
f 84/203/61 82/204/61 81/201/61
f 85/205/62 86/206/62 88/207/62
f 88/207/62 87/208/62 85/205/62
f 81/209/63 82/210/63 86/211/63
f 86/211/63 85/212/63 81/209/63
f 82/204/64 84/213/64 88/207/64
f 88/207/64 86/214/64 82/204/64
f 84/215/65 83/216/65 87/217/65
f 87/217/65 88/218/65 84/215/65
f 83/219/66 81/201/66 85/220/66
f 85/220/66 87/208/66 83/219/66
o Box012_Меш.020
v 4.095305 2.020329 3.486639
v 4.096093 2.020329 3.987168
v 4.095305 2.066266 3.486639
v 4.096093 2.066266 3.987168
v 2.097027 2.020329 3.489782
v 2.097815 2.020329 3.990312
v 2.097027 2.066265 3.489782
v 2.097815 2.066265 3.990312
vt 1.000000 0.000000
vt 1.000000 1.000000
vt 0.000000 1.000000
vt 0.000000 0.000000
vt 0.000000 0.000000
vt 1.000000 0.000000
vt 1.000000 1.000000
vt 0.000000 1.000000
vt 0.000000 0.000000
vt 1.000000 0.000000
vt 1.000000 1.000000
vt 0.000000 1.000000
vt 1.000000 0.000000
vt 0.000000 1.000000
vt 0.000000 0.000000
vt 1.000000 0.000000
vt 1.000000 1.000000
vt 0.000000 1.000000
vt 0.000000 0.000000
vt 1.000000 1.000000
vn 1.0000 0.0000 -0.0016
vn -1.0000 0.0000 0.0016
vn 0.0000 -1.0000 0.0000
vn 0.0016 0.0000 1.0000
vn -0.0000 1.0000 0.0000
vn -0.0016 0.0000 -1.0000
usemtl 02_-_Default
s 1
f 89/221/67 91/222/67 92/223/67
f 92/223/67 90/224/67 89/221/67
f 93/225/68 94/226/68 96/227/68
f 96/227/68 95/228/68 93/225/68
f 89/229/69 90/230/69 94/231/69
f 94/231/69 93/232/69 89/229/69
f 90/224/70 92/233/70 96/227/70
f 96/227/70 94/234/70 90/224/70
f 92/235/71 91/236/71 95/237/71
f 95/237/71 96/238/71 92/235/71
f 91/239/72 89/221/72 93/240/72
f 93/240/72 95/228/72 91/239/72
o Box013_Меш.021
v 0.721227 -0.034040 3.495691
v 0.722015 -0.034040 3.996221
v 0.789624 -0.034040 3.495584
v 0.790412 -0.034040 3.996114
v 0.721227 2.076156 3.495691
v 0.722015 2.076156 3.996221
v 0.789624 2.076156 3.495584
v 0.790412 2.076156 3.996114
vt 1.000000 0.000000
vt 1.000000 1.000000
vt 0.000000 1.000000
vt 0.000000 0.000000
vt 0.000000 0.000000
vt 1.000000 0.000000
vt 1.000000 1.000000
vt 0.000000 1.000000
vt 0.000000 0.000000
vt 1.000000 0.000000
vt 1.000000 1.000000
vt 0.000000 1.000000
vt 1.000000 0.000000
vt 0.000000 1.000000
vt 0.000000 0.000000
vt 1.000000 0.000000
vt 1.000000 1.000000
vt 0.000000 1.000000
vt 0.000000 0.000000
vt 1.000000 1.000000
vn 0.0000 -1.0000 -0.0000
vn 0.0000 1.0000 0.0000
vn -1.0000 0.0000 0.0016
vn 0.0016 0.0000 1.0000
vn 1.0000 -0.0000 -0.0016
vn -0.0016 0.0000 -1.0000
usemtl 02_-_Default
s 1
f 97/241/73 99/242/73 100/243/73
f 100/243/73 98/244/73 97/241/73
f 101/245/74 102/246/74 104/247/74
f 104/247/74 103/248/74 101/245/74
f 97/249/75 98/250/75 102/251/75
f 102/251/75 101/252/75 97/249/75
f 98/244/76 100/253/76 104/247/76
f 104/247/76 102/254/76 98/244/76
f 100/255/77 99/256/77 103/257/77
f 103/257/77 104/258/77 100/255/77
f 99/259/78 97/241/78 101/260/78
f 101/260/78 103/248/78 99/259/78
