# Blender v2.91.0 OBJ File: 'full_room.blend'
# www.blender.org
mtllib cute_walls.mtl
o Cube.002_Cube.004
v 5.050000 2.894484 -4.000000
v 5.050000 -0.115327 4.000000
v 5.050000 -0.115326 -4.000000
v 4.950000 2.894483 4.000000
v 4.950000 -0.115327 4.000000
v 5.050000 2.894483 4.000000
v 4.950000 2.894484 -4.000000
v 4.950000 -0.115326 -4.000000
vt 0.875000 0.500000
vt 0.625000 0.750000
vt 0.625000 0.500000
vt 0.375000 1.000000
vt 0.375000 0.750000
vt 0.625000 0.000000
vt 0.375000 0.250000
vt 0.375000 0.000000
vt 0.375000 0.500000
vt 0.125000 0.750000
vt 0.125000 0.500000
vt 0.625000 0.250000
vt 0.875000 0.750000
vt 0.625000 1.000000
vn 1.0000 -0.0000 0.0000
vn 0.0000 -0.0000 1.0000
vn 0.0000 1.0000 0.0000
vn -1.0000 0.0000 0.0000
vn 0.0000 -1.0000 -0.0000
vn 0.0000 0.0000 -1.0000
usemtl Material.002
s 1
f 1/1/1 2/2/1 3/3/1
f 2/2/2 4/4/2 5/5/2
f 6/6/3 7/7/3 4/8/3
f 8/9/4 4/10/4 7/11/4
f 3/3/5 5/5/5 8/9/5
f 1/12/6 8/9/6 7/7/6
f 1/1/1 6/13/1 2/2/1
f 2/2/2 6/14/2 4/4/2
f 6/6/3 1/12/3 7/7/3
f 8/9/4 5/5/4 4/10/4
f 3/3/5 2/2/5 5/5/5
f 1/12/6 3/3/6 8/9/6
o Cube.004_Cube.007
v -4.950000 2.894484 -4.000000
v -4.950000 -0.115327 4.000000
v -4.950000 -0.115326 -4.000000
v -5.050000 2.894483 4.000000
v -5.050000 -0.115327 4.000000
v -4.950000 2.894483 4.000000
v -5.050000 2.894484 -4.000000
v -5.050000 -0.115326 -4.000000
vt 0.875000 0.500000
vt 0.625000 0.750000
vt 0.625000 0.500000
vt 0.375000 1.000000
vt 0.375000 0.750000
vt 0.625000 0.000000
vt 0.375000 0.250000
vt 0.375000 0.000000
vt 0.375000 0.500000
vt 0.125000 0.750000
vt 0.125000 0.500000
vt 0.625000 0.250000
vt 0.875000 0.750000
vt 0.625000 1.000000
vn 1.0000 0.0000 0.0000
vn 0.0000 -0.0000 1.0000
vn 0.0000 1.0000 0.0000
vn -1.0000 -0.0000 0.0000
vn 0.0000 -1.0000 -0.0000
vn 0.0000 0.0000 -1.0000
usemtl Material.002
s 1
f 9/15/7 10/16/7 11/17/7
f 10/16/8 12/18/8 13/19/8
f 14/20/9 15/21/9 12/22/9
f 16/23/10 12/24/10 15/25/10
f 11/17/11 13/19/11 16/23/11
f 9/26/12 16/23/12 15/21/12
f 9/15/7 14/27/7 10/16/7
f 10/16/8 14/28/8 12/18/8
f 14/20/9 9/26/9 15/21/9
f 16/23/10 13/19/10 12/24/10
f 11/17/11 10/16/11 13/19/11
f 9/26/12 11/17/12 16/23/12
o Cube.005_Cube.008
v 5.000000 2.889579 -3.950000
v -5.000000 -0.110421 -3.950000
v 5.000000 -0.110421 -3.950000
v -5.000000 2.889579 -4.050000
v -5.000000 -0.110421 -4.050000
v -5.000000 2.889579 -3.950000
v 5.000000 2.889579 -4.050000
v 5.000000 -0.110421 -4.050000
vt 0.875000 0.500000
vt 0.625000 0.750000
vt 0.625000 0.500000
vt 0.375000 1.000000
vt 0.375000 0.750000
vt 0.625000 0.000000
vt 0.375000 0.250000
vt 0.375000 0.000000
vt 0.375000 0.500000
vt 0.125000 0.750000
vt 0.125000 0.500000
vt 0.625000 0.250000
vt 0.875000 0.750000
vt 0.625000 1.000000
vn 0.0000 -0.0000 1.0000
vn -1.0000 0.0000 0.0000
vn 0.0000 1.0000 0.0000
vn 0.0000 0.0000 -1.0000
vn 0.0000 -1.0000 -0.0000
vn 1.0000 0.0000 0.0000
usemtl Material.002
s 1
f 17/29/13 18/30/13 19/31/13
f 18/30/14 20/32/14 21/33/14
f 22/34/15 23/35/15 20/36/15
f 24/37/16 20/38/16 23/39/16
f 19/31/17 21/33/17 24/37/17
f 17/40/18 24/37/18 23/35/18
f 17/29/13 22/41/13 18/30/13
f 18/30/14 22/42/14 20/32/14
f 22/34/15 17/40/15 23/35/15
f 24/37/16 21/33/16 20/38/16
f 19/31/17 18/30/17 21/33/17
f 17/40/18 19/31/18 24/37/18
o Cube.006_Cube.009
v 5.000000 2.889578 4.050001
v -5.000000 -0.110422 4.050000
v 5.000000 -0.110422 4.050000
v -5.000000 2.889578 3.950001
v -5.000000 -0.110422 3.950000
v -5.000000 2.889578 4.050001
v 5.000000 2.889578 3.950001
v 5.000000 -0.110422 3.950000
vt 0.875000 0.500000
vt 0.625000 0.750000
vt 0.625000 0.500000
vt 0.375000 1.000000
vt 0.375000 0.750000
vt 0.625000 0.000000
vt 0.375000 0.250000
vt 0.375000 0.000000
vt 0.375000 0.500000
vt 0.125000 0.750000
vt 0.125000 0.500000
vt 0.625000 0.250000
vt 0.875000 0.750000
vt 0.625000 1.000000
vn 0.0000 -0.0000 1.0000
vn -1.0000 0.0000 0.0000
vn 0.0000 1.0000 0.0000
vn 0.0000 0.0000 -1.0000
vn 0.0000 -1.0000 -0.0000
vn 1.0000 0.0000 0.0000
usemtl Material.002
s 1
f 25/43/19 26/44/19 27/45/19
f 26/44/20 28/46/20 29/47/20
f 30/48/21 31/49/21 28/50/21
f 32/51/22 28/52/22 31/53/22
f 27/45/23 29/47/23 32/51/23
f 25/54/24 32/51/24 31/49/24
f 25/43/19 30/55/19 26/44/19
f 26/44/20 30/56/20 28/46/20
f 30/48/21 25/54/21 31/49/21
f 32/51/22 29/47/22 28/52/22
f 27/45/23 26/44/23 29/47/23
f 25/54/24 27/45/24 32/51/24
